<?xml version="1.0" standalone="no"?>
<!DOCTYPE svg PUBLIC "-//W3C//DTD SVG 20010904//EN"
 "http://www.w3.org/TR/2001/REC-SVG-20010904/DTD/svg10.dtd">
<svg version="1.0" xmlns="http://www.w3.org/2000/svg"
 width="250.000000pt" height="250.000000pt" viewBox="0 0 250.000000 250.000000"
 preserveAspectRatio="xMidYMid meet">
<metadata>
Created by potrace 1.14, written by Peter Selinger 2001-2017
</metadata>
<g transform="translate(0.000000,250.000000) scale(0.100000,-0.100000)"
fill="#000000" stroke="none">
<path d="M1291 2359 c85 -61 183 -182 274 -340 l51 -87 27 16 c15 9 27 24 27
32 0 29 -114 185 -194 266 -80 80 -173 144 -210 144 -13 0 -6 -9 25 -31z"/>
<path d="M996 2334 c-75 -27 -233 -165 -279 -243 -31 -54 -2 -34 96 63 109
108 161 140 229 139 146 -2 261 -177 412 -627 20 -60 40 -114 43 -119 3 -5 25
13 50 39 35 39 43 54 38 74 -9 37 -153 328 -186 377 -16 23 -29 44 -29 48 0
14 -110 153 -148 187 -77 69 -150 89 -226 62z"/>
<path d="M1587 2278 c11 -13 30 -34 42 -48 40 -43 186 -242 236 -320 27 -41
50 -76 51 -78 4 -7 52 29 58 43 12 32 -218 301 -328 382 -63 47 -92 57 -59 21z"/>
<path d="M1676 1896 c-26 -25 -26 -26 -10 -63 52 -122 124 -306 140 -356 l18
-57 43 42 c24 23 43 51 43 61 0 20 -187 390 -199 395 -4 1 -20 -9 -35 -22z"/>
<path d="M1986 1801 c-19 -20 -25 -33 -19 -47 19 -47 116 -204 126 -204 13 0
67 50 67 63 0 11 -126 203 -138 211 -5 3 -21 -7 -36 -23z"/>
<path d="M325 1578 c-30 -62 -51 -116 -47 -120 4 -3 23 -9 42 -13 l35 -6 63
109 c34 60 62 111 62 114 0 8 -59 28 -82 28 -14 0 -32 -29 -73 -112z"/>
<path d="M993 1613 c-21 -26 -46 -57 -56 -68 -10 -11 -32 -37 -49 -57 -33 -42
-36 -38 57 -63 l60 -15 73 77 c86 91 115 130 105 136 -10 7 -128 37 -141 37
-6 0 -28 -21 -49 -47z"/>
<path d="M1615 1562 c-5 -4 -29 -28 -53 -53 l-42 -45 30 -89 c16 -48 32 -90
34 -92 2 -3 22 14 43 38 69 76 67 68 31 163 -20 51 -37 82 -43 78z"/>
<path d="M588 1519 c-9 -5 -60 -77 -113 -161 -54 -84 -106 -165 -116 -180
l-19 -27 31 -16 c17 -9 36 -14 43 -12 7 3 52 56 99 119 47 62 94 122 104 133
34 37 93 112 93 118 0 3 -17 9 -37 13 -21 4 -45 10 -53 14 -9 5 -23 4 -32 -1z"/>
<path d="M233 1378 c-25 -32 -112 -272 -134 -366 -15 -66 -19 -151 -8 -157 5
-4 9 1 9 9 0 25 92 249 158 386 33 69 58 128 55 132 -7 13 -70 9 -80 -4z"/>
<path d="M814 1380 c-29 -11 -115 -112 -112 -129 2 -9 28 -20 67 -29 l64 -14
26 29 c14 15 44 48 65 73 l39 44 -49 17 c-56 20 -70 21 -100 9z"/>
<path d="M1662 1268 c-28 -29 -52 -58 -52 -63 0 -6 19 -68 43 -138 l43 -127
58 59 58 58 -33 94 c-18 52 -39 111 -48 132 l-17 39 -52 -54z"/>
<path d="M584 1103 c-126 -171 -239 -368 -280 -488 -79 -237 1 -339 314 -398
60 -12 33 8 -36 26 -170 44 -257 125 -251 235 7 116 102 271 342 552 l106 125
-47 12 c-82 22 -86 20 -148 -64z"/>
<path d="M2314 1145 c3 -11 17 -58 31 -105 51 -166 36 -262 -52 -340 -65 -57
-114 -69 -255 -65 -65 2 -121 5 -125 8 -4 3 -30 8 -58 11 -27 4 -99 16 -160
27 -183 33 -205 36 -211 28 -2 -5 2 -33 11 -64 20 -67 19 -67 250 -82 345 -22
549 13 629 107 55 66 55 184 1 346 -24 71 -72 174 -61 129z"/>
<path d="M307 1067 c-31 -23 -104 -188 -132 -299 -23 -87 -29 -148 -20 -216
l8 -57 13 78 c23 130 82 277 169 421 35 59 41 75 28 77 -5 0 -17 2 -29 4 -12
3 -28 -1 -37 -8z"/>
<path d="M866 843 c-4 -4 33 -144 39 -151 5 -6 265 -49 269 -45 2 2 -6 35 -17
73 -15 52 -25 71 -41 76 -38 12 -246 51 -250 47z"/>
<path d="M1210 766 c0 -16 27 -102 39 -124 8 -16 29 -23 96 -32 48 -7 88 -10
91 -8 2 3 -5 35 -16 71 -19 62 -23 67 -58 76 -74 20 -152 29 -152 17z"/>
<path d="M2308 505 c-12 -13 -152 -55 -214 -65 -38 -7 -130 -13 -204 -15
l-135 -4 2 -31 c0 -17 4 -34 7 -37 5 -6 96 -5 151 1 110 13 142 19 202 37 89
27 165 64 194 95 12 13 18 24 12 24 -5 0 -12 -2 -15 -5z"/>
<path d="M1224 476 c-9 -25 16 -105 35 -110 9 -3 66 -8 126 -11 61 -3 154 -8
208 -11 83 -4 98 -3 103 11 8 20 -14 63 -35 69 -20 6 -68 13 -146 21 -58 6
-185 27 -252 41 -25 5 -34 3 -39 -10z"/>
<path d="M1920 249 c-104 -16 -198 -25 -345 -34 -27 -2 -53 -3 -57 -4 -14 -2
-9 -58 6 -70 38 -32 458 57 540 114 20 15 20 15 -4 14 -14 -1 -77 -10 -140
-20z"/>
<path d="M1191 201 c-12 -7 -12 -15 0 -52 l14 -43 65 3 c36 2 79 5 95 6 17 1
45 3 63 4 29 1 32 4 32 30 0 49 -29 61 -150 61 -58 0 -111 -4 -119 -9z"/>
</g>
</svg>
