<?xml version="1.0" standalone="no"?>
<!DOCTYPE svg PUBLIC "-//W3C//DTD SVG 20010904//EN"
 "http://www.w3.org/TR/2001/REC-SVG-20010904/DTD/svg10.dtd">
<svg version="1.0" xmlns="http://www.w3.org/2000/svg"
 width="720.000000pt" height="720.000000pt" viewBox="0 0 720.000000 720.000000"
 preserveAspectRatio="xMidYMid meet">
<metadata>
Created by potrace 1.14, written by Peter Selinger 2001-2017
</metadata>
<g transform="translate(0.000000,720.000000) scale(0.100000,-0.100000)"
fill="#000000" stroke="none">
<path d="M3495 6396 c-123 -30 -75 15 -1421 -1330 -1393 -1393 -1320 -1314
-1346 -1464 -9 -53 -9 -88 -1 -142 24 -155 -59 -64 1350 -1471 1139 -1137
1285 -1280 1338 -1305 56 -27 68 -29 185 -29 219 0 64 -135 1537 1338 1223
1223 1273 1275 1305 1342 28 61 33 82 36 172 4 108 -9 171 -51 243 -11 19
-223 238 -470 487 l-450 452 57 68 c142 167 291 325 471 500 212 207 247 257
281 401 22 92 14 254 -16 339 -63 180 -235 341 -416 388 -77 20 -252 20 -329
0 -103 -27 -172 -72 -299 -195 -98 -95 -481 -502 -579 -615 l-26 -30 -398 397
c-337 336 -407 401 -454 422 -98 45 -205 56 -304 32z m507 -814 l368 -367
-131 -163 c-72 -89 -134 -162 -138 -162 -4 0 -105 99 -226 221 -121 121 -228
225 -237 230 -53 29 -54 28 -475 -393 l-402 -402 -88 86 c-85 82 -202 168
-230 168 -7 0 -13 3 -13 8 0 10 1111 1118 1135 1131 52 28 55 26 437 -357z
m2014 -2040 c7 -34 3 -38 -1187 -1228 -1130 -1130 -1196 -1194 -1229 -1194
-33 0 -99 64 -1222 1187 -663 663 -1189 1197 -1193 1210 -3 13 1 36 9 51 16
29 393 409 399 402 2 -3 17 -30 33 -60 16 -30 74 -101 131 -160 l102 -106 -34
-35 c-19 -19 -38 -49 -41 -67 -7 -34 -4 -37 887 -928 884 -884 895 -894 934
-894 39 0 49 10 913 873 480 479 880 884 888 899 29 55 24 62 -201 288 -118
118 -215 219 -215 224 0 5 55 84 123 177 l122 168 387 -387 c315 -314 389
-393 394 -420z"/>
</g>
</svg>
